<svg width="21" height="20" viewBox="0 0 21 20" fill="none" xmlns="http://www.w3.org/2000/svg">
<path d="M12.1739 7.82609H4.34783C3.86696 7.82609 3.47826 8.21565 3.47826 8.69565V15.6522C3.47826 16.1322 3.86696 16.5217 4.34783 16.5217H12.1739C12.6548 16.5217 13.0435 16.1322 13.0435 15.6522V8.69565C13.0435 8.21565 12.6548 7.82609 12.1739 7.82609ZM11.3043 14.7826H5.21739V9.56522H11.3043V14.7826ZM19.8957 6.95043C19.2948 6.65043 18.5861 6.71217 18.0478 7.11652L16.4809 8.29217C16.2739 6.08609 14.433 4.34783 12.1739 4.34783H12.1104L8.52696 0.764348C8.03478 0.271304 7.37913 0 6.68261 0H0.869565C0.388696 0 0 0.389565 0 0.869565C0 1.34957 0.388696 1.73913 0.869565 1.73913H6.68261C6.9113 1.73913 7.13565 1.83217 7.29739 1.99391L9.6513 4.34783H4.34783C1.95043 4.34783 0 6.29826 0 8.69565V15.6522C0 18.0496 1.95043 20 4.34783 20H12.1739C14.433 20 16.273 18.2617 16.4809 16.0565L18.0478 17.2322C18.36 17.467 18.7313 17.5861 19.1043 17.5861C19.3739 17.5861 19.6435 17.5243 19.8948 17.3983C20.4957 17.0974 20.8696 16.493 20.8696 15.8209V8.52783C20.8696 7.85565 20.4957 7.2513 19.8957 6.95043ZM14.7826 15.6522C14.7826 17.0904 13.6122 18.2609 12.1739 18.2609H4.34783C2.90956 18.2609 1.73913 17.0904 1.73913 15.6522V8.69565C1.73913 7.25739 2.90956 6.08696 4.34783 6.08696H12.1739C13.6122 6.08696 14.7826 7.25739 14.7826 8.69565V15.6522ZM19.0904 15.84L16.5217 13.913V10.4391L19.1296 8.51478V8.52783L19.0904 15.84Z" fill="#000225"/>
</svg>
