<svg width="20" height="20" viewBox="0 0 20 20" fill="none" xmlns="http://www.w3.org/2000/svg">
<path d="M5.83333 0H3.33333C2.44928 0 1.60143 0.351189 0.976311 0.976311C0.351189 1.60143 0 2.44928 0 3.33333V5.83333C0 6.71739 0.351189 7.56523 0.976311 8.19036C1.60143 8.81548 2.44928 9.16667 3.33333 9.16667H5.83333C6.71739 9.16667 7.56523 8.81548 8.19036 8.19036C8.81548 7.56523 9.16667 6.71739 9.16667 5.83333V3.33333C9.16667 2.44928 8.81548 1.60143 8.19036 0.976311C7.56523 0.351189 6.71739 0 5.83333 0ZM7.5 5.83333C7.5 6.27536 7.3244 6.69928 7.01184 7.01184C6.69928 7.3244 6.27536 7.5 5.83333 7.5H3.33333C2.89131 7.5 2.46738 7.3244 2.15482 7.01184C1.84226 6.69928 1.66667 6.27536 1.66667 5.83333V3.33333C1.66667 2.89131 1.84226 2.46738 2.15482 2.15482C2.46738 1.84226 2.89131 1.66667 3.33333 1.66667H5.83333C6.27536 1.66667 6.69928 1.84226 7.01184 2.15482C7.3244 2.46738 7.5 2.89131 7.5 3.33333V5.83333Z" fill="#000225"/>
<path d="M5.83333 10.8333H3.33333C2.44928 10.8333 1.60143 11.1845 0.976311 11.8096C0.351189 12.4348 0 13.2826 0 14.1667V16.6667C0 17.5507 0.351189 18.3986 0.976311 19.0237C1.60143 19.6488 2.44928 20 3.33333 20H5.83333C6.71739 20 7.56523 19.6488 8.19036 19.0237C8.81548 18.3986 9.16667 17.5507 9.16667 16.6667V14.1667C9.16667 13.2826 8.81548 12.4348 8.19036 11.8096C7.56523 11.1845 6.71739 10.8333 5.83333 10.8333ZM7.5 16.6667C7.5 17.1087 7.3244 17.5326 7.01184 17.8452C6.69928 18.1577 6.27536 18.3333 5.83333 18.3333H3.33333C2.89131 18.3333 2.46738 18.1577 2.15482 17.8452C1.84226 17.5326 1.66667 17.1087 1.66667 16.6667V14.1667C1.66667 13.7246 1.84226 13.3007 2.15482 12.9882C2.46738 12.6756 2.89131 12.5 3.33333 12.5H5.83333C6.27536 12.5 6.69928 12.6756 7.01184 12.9882C7.3244 13.3007 7.5 13.7246 7.5 14.1667V16.6667Z" fill="#000225"/>
<path d="M16.6667 10.8333H14.1667C13.2826 10.8333 12.4348 11.1845 11.8096 11.8096C11.1845 12.4348 10.8333 13.2826 10.8333 14.1667V16.6667C10.8333 17.5507 11.1845 18.3986 11.8096 19.0237C12.4348 19.6488 13.2826 20 14.1667 20H16.6667C17.5507 20 18.3986 19.6488 19.0237 19.0237C19.6488 18.3986 20 17.5507 20 16.6667V14.1667C20 13.2826 19.6488 12.4348 19.0237 11.8096C18.3986 11.1845 17.5507 10.8333 16.6667 10.8333ZM18.3333 16.6667C18.3333 17.1087 18.1577 17.5326 17.8452 17.8452C17.5326 18.1577 17.1087 18.3333 16.6667 18.3333H14.1667C13.7246 18.3333 13.3007 18.1577 12.9882 17.8452C12.6756 17.5326 12.5 17.1087 12.5 16.6667V14.1667C12.5 13.7246 12.6756 13.3007 12.9882 12.9882C13.3007 12.6756 13.7246 12.5 14.1667 12.5H16.6667C17.1087 12.5 17.5326 12.6756 17.8452 12.9882C18.1577 13.3007 18.3333 13.7246 18.3333 14.1667V16.6667Z" fill="#000225"/>
<path d="M11.6667 5.83333H14.1667V8.33333C14.1667 8.55435 14.2545 8.76631 14.4107 8.92259C14.567 9.07887 14.779 9.16667 15 9.16667C15.221 9.16667 15.433 9.07887 15.5893 8.92259C15.7455 8.76631 15.8333 8.55435 15.8333 8.33333V5.83333H18.3333C18.5543 5.83333 18.7663 5.74554 18.9226 5.58926C19.0789 5.43298 19.1667 5.22101 19.1667 5C19.1667 4.77899 19.0789 4.56703 18.9226 4.41075C18.7663 4.25447 18.5543 4.16667 18.3333 4.16667H15.8333V1.66667C15.8333 1.44565 15.7455 1.23369 15.5893 1.07741C15.433 0.921132 15.221 0.833335 15 0.833335C14.779 0.833335 14.567 0.921132 14.4107 1.07741C14.2545 1.23369 14.1667 1.44565 14.1667 1.66667V4.16667H11.6667C11.4457 4.16667 11.2337 4.25447 11.0774 4.41075C10.9211 4.56703 10.8333 4.77899 10.8333 5C10.8333 5.22101 10.9211 5.43298 11.0774 5.58926C11.2337 5.74554 11.4457 5.83333 11.6667 5.83333Z" fill="#000225"/>
</svg>
