<svg width="120" height="120" viewBox="0 0 120 120" fill="none" xmlns="http://www.w3.org/2000/svg">
<g filter="url(#filter0_d_419_206)">
<rect x="25" y="25" width="60" height="60" rx="30" fill="white"/>
</g>
<path d="M47.6936 67C47.3264 67 46.9607 66.8997 46.635 66.6998C46.0365 66.333 45.6795 65.6973 45.6795 64.9992V62.0695C43.5722 59.4208 42.6614 56.113 43.113 52.7187C43.8371 47.2729 48.3488 42.8093 53.8401 42.106C57.7079 41.6103 61.5046 42.868 64.2608 45.5547C67.0172 48.2414 68.3509 51.9827 67.9207 55.8197C67.2972 61.3766 62.7741 65.9481 57.1665 66.6902C54.9309 66.9844 52.67 66.6773 50.5957 65.7959L48.596 66.7871C48.3096 66.929 48.0008 67 47.6936 67ZM54.0685 43.8637C49.3662 44.4658 45.5032 48.2874 44.8828 52.9505C44.4831 55.9582 45.3267 58.8844 47.2589 61.1889C47.3921 61.348 47.465 61.5486 47.465 61.7554V64.9992C47.465 65.1037 47.5244 65.1617 47.5736 65.193C47.6242 65.2231 47.704 65.2491 47.7978 65.2023L50.1762 64.0234C50.4196 63.9023 50.7072 63.8981 50.9549 64.0139C52.8261 64.8849 54.8915 65.2033 56.93 64.9343C61.7361 64.2984 65.6116 60.3826 66.1461 55.6242C66.5154 52.3312 65.3719 49.1211 63.009 46.8185C60.6466 44.515 57.388 43.4372 54.0685 43.8637Z" fill="#07A74D"/>
<path d="M49.295 57.2024L53.3936 51.4153C53.5643 51.1189 53.958 51.0383 54.2332 51.2429L56.9788 53.2857C57.1649 53.4242 57.4168 53.4369 57.6161 53.3183L60.9595 50.9738C61.4501 50.6818 62.021 51.2063 61.7653 51.714L58.4553 57.3954C58.3063 57.6911 57.9353 57.7983 57.6496 57.6281L53.9842 55.4463C53.8165 55.3466 53.6091 55.3386 53.4341 55.4253L50.0471 57.9911C49.5413 58.2423 49.0143 57.6898 49.295 57.2024Z" fill="#07A74D"/>
<rect x="72" y="30" width="10" height="10" rx="5" fill="#07A74D"/>
<defs>
<filter id="filter0_d_419_206" x="0" y="0" width="120" height="120" filterUnits="userSpaceOnUse" color-interpolation-filters="sRGB">
<feFlood flood-opacity="0" result="BackgroundImageFix"/>
<feColorMatrix in="SourceAlpha" type="matrix" values="0 0 0 0 0 0 0 0 0 0 0 0 0 0 0 0 0 0 127 0" result="hardAlpha"/>
<feOffset dx="5" dy="5"/>
<feGaussianBlur stdDeviation="15"/>
<feComposite in2="hardAlpha" operator="out"/>
<feColorMatrix type="matrix" values="0 0 0 0 0 0 0 0 0 0 0 0 0 0 0 0 0 0 0.1 0"/>
<feBlend mode="normal" in2="BackgroundImageFix" result="effect1_dropShadow_419_206"/>
<feBlend mode="normal" in="SourceGraphic" in2="effect1_dropShadow_419_206" result="shape"/>
</filter>
</defs>
</svg>
