<svg width="120" height="120" viewBox="0 0 120 120" fill="none" xmlns="http://www.w3.org/2000/svg">
<g filter="url(#filter0_d_419_212)">
<rect x="25" y="25" width="60" height="60" rx="30" fill="white"/>
</g>
<g clip-path="url(#clip0_419_212)">
<path d="M49.617 54.5509C49.8401 54.0822 50.0686 53.5647 50.3289 53.0639C50.6919 52.367 51.1225 51.7149 51.7586 51.2293C52.2148 50.881 52.7697 50.9845 53.0408 51.4608C53.2129 51.7668 53.179 52.2015 52.9009 52.4284C52.1092 53.0711 51.7037 53.958 51.3183 54.8573C51.1301 55.2966 50.9759 55.751 50.8232 56.2037C50.6041 56.8568 49.8691 57.0283 49.3883 56.5351C49.2696 56.4152 49.1528 56.2886 49.0128 56.2005C48.8903 56.1242 48.7518 56.0773 48.6081 56.0636C48.1605 56.0275 47.8063 55.667 47.8116 55.2254C47.8176 54.7435 48.1762 54.3767 48.688 54.3927C48.997 54.4002 49.3044 54.4959 49.617 54.5509Z" fill="#F42A41"/>
<path d="M57.3733 52.421C56.7637 52.5958 56.1544 52.7705 55.5451 52.9452C55.0777 53.0793 54.634 52.8435 54.5013 52.4013C54.3643 51.944 54.6032 51.4906 55.0727 51.3522C56.3028 50.9941 57.5344 50.641 58.7673 50.2928C58.8729 50.2614 58.9838 50.2514 59.0933 50.2633C59.2029 50.2752 59.3089 50.3089 59.4053 50.3622C59.5018 50.4156 59.5866 50.4876 59.6549 50.5741C59.7232 50.6605 59.7735 50.7598 59.8031 50.8659C59.9274 51.3126 59.6789 51.7561 59.2203 51.8901C58.6053 52.0698 57.9887 52.2441 57.3733 52.421Z" fill="#F42A41"/>
<path d="M50.617 59.5509C50.8401 59.0822 51.0686 58.5647 51.3289 58.0639C51.6919 57.367 52.1225 56.7149 52.7586 56.2293C53.2148 55.881 53.7697 55.9845 54.0408 56.4608C54.2129 56.7668 54.179 57.2015 53.9009 57.4284C53.1092 58.0711 52.7037 58.958 52.3183 59.8573C52.1301 60.2966 51.9759 60.751 51.8232 61.2037C51.6041 61.8568 50.8691 62.0283 50.3883 61.5351C50.2696 61.4152 50.1528 61.2886 50.0128 61.2005C49.8903 61.1242 49.7518 61.0773 49.6081 61.0636C49.1605 61.0275 48.8063 60.667 48.8116 60.2254C48.8176 59.7435 49.1762 59.3767 49.688 59.3927C49.997 59.4002 50.3044 59.4959 50.617 59.5509Z" fill="#F42A41"/>
<path d="M58.3733 57.421C57.7637 57.5958 57.1544 57.7705 56.5451 57.9452C56.0777 58.0793 55.634 57.8435 55.5013 57.4013C55.3643 56.944 55.6032 56.4906 56.0727 56.3522C57.3028 55.9941 58.5344 55.641 59.7673 55.2928C59.8729 55.2614 59.9838 55.2514 60.0933 55.2633C60.2029 55.2752 60.3089 55.3089 60.4053 55.3622C60.5018 55.4156 60.5866 55.4876 60.6549 55.5741C60.7232 55.6605 60.7735 55.7598 60.8031 55.8659C60.9274 56.3126 60.6789 56.7561 60.2203 56.8901C59.6053 57.0698 58.9887 57.2441 58.3733 57.421Z" fill="#F42A41"/>
<path d="M51.17 44.9893C51.1031 44.211 51.2888 43.513 51.7919 42.9216C52.1628 42.4776 52.6728 42.1721 53.2393 42.0546C54.2646 41.8365 55.5908 42.2525 56.2159 43.6544C56.6538 43.5582 57.0928 43.4564 57.535 43.365C58.2975 43.2094 59.0659 43.0966 59.845 43.2066C61.0801 43.3828 61.953 44.0712 62.535 45.1524C63.0243 46.0629 63.3046 47.0498 63.5781 48.0376C64.073 49.8238 64.5613 51.6119 65.0429 53.4018C65.552 55.2799 66.0667 57.1563 66.558 59.0388C66.769 59.8472 66.9202 60.6698 66.8687 61.515C66.7895 62.8115 66.1605 63.7616 65.0508 64.405C64.3287 64.8246 63.5421 65.0886 62.7416 65.3048C60.7108 65.8555 58.6759 66.3887 56.6427 66.9244C56.1047 67.0665 55.5738 66.9786 55.0409 66.8709C53.0948 66.475 51.1487 66.0805 49.2028 65.6872C48.9257 65.631 48.6522 65.5582 48.3806 65.4786C47.3513 65.1781 46.6783 64.5008 46.3743 63.4822C46.0295 62.3309 45.7104 61.1722 45.3925 60.013C44.805 57.8709 44.2317 55.7248 43.6423 53.5831C43.3818 52.6369 43.1316 51.6896 43.0302 50.7118C42.9036 49.4917 43.1597 48.3899 44.0869 47.519C44.6443 46.9956 45.3188 46.6571 46.0386 46.435C47.2753 46.0538 48.5247 45.713 49.7701 45.3598C50.2254 45.2327 50.6846 45.1179 51.17 44.9893ZM47.8711 62.4829C48.1443 62.1805 48.3774 61.884 48.6486 61.6282C49.847 60.4976 51.1549 60.2941 52.6074 61.0601C53.518 61.5396 54.2306 62.2517 54.864 63.0396C55.3873 63.6904 55.8715 64.3725 56.3715 65.0419C56.4321 65.1211 56.4724 65.1864 56.6055 65.1508C58.4143 64.6639 60.2274 64.1939 62.0346 63.7011C62.7753 63.4988 63.5132 63.2775 64.1882 62.8927C64.8149 62.5364 65.1352 62.0071 65.1348 61.2799C65.1348 60.6425 65.0192 60.0213 64.8576 59.4117C64.3252 57.405 63.7773 55.4022 63.2345 53.3982C62.8497 51.9778 62.4823 50.5526 62.0722 49.1389C61.7951 48.1749 61.4863 47.2177 61.1407 46.2763C60.9202 45.6765 60.5469 45.1548 59.8715 44.998C59.55 44.9232 59.1985 44.8871 58.8755 44.9323C58.1482 45.0332 57.4313 45.205 56.7068 45.3282C56.4016 45.3808 56.1862 45.5027 56.1189 45.8218C56.1091 45.8533 56.0947 45.8832 56.0762 45.9105C55.6542 46.6627 55.0219 47.1219 54.1668 47.2565C54.0247 47.2795 53.9598 47.3357 53.9253 47.4798C53.8181 47.9339 53.6878 48.3824 53.5734 48.8349C53.4408 49.3586 52.9796 49.6611 52.4918 49.5376C52.0041 49.4141 51.7464 48.9327 51.8826 48.4089C52.0027 47.951 52.1228 47.4931 52.2428 47.0352C52.258 46.9777 52.2578 46.9173 52.2422 46.8599C52.2266 46.8025 52.1962 46.7502 52.1541 46.7083C52.1119 46.6664 52.0595 46.6362 52.0021 46.6209C51.9446 46.6056 51.8842 46.6057 51.8268 46.6211C50.4234 46.9936 49.0184 47.3614 47.6181 47.7474C46.953 47.9311 46.2951 48.1433 45.6906 48.4881C45.1466 48.7981 44.7836 49.2482 44.7614 49.8867C44.7468 50.3175 44.7674 50.762 44.8612 51.1809C45.1051 52.2704 45.3854 53.3523 45.6747 54.4311C46.2575 56.6017 46.8549 58.7692 47.4463 60.937C47.5861 61.4497 47.7278 61.9616 47.8711 62.4829ZM54.0639 64.901L54.1063 64.8468C53.7397 64.4184 53.3968 63.9655 52.9978 63.5689C52.6472 63.2229 52.2637 62.9118 51.8529 62.6401C51.4827 62.3935 51.0532 62.2478 50.5968 62.4097C49.8778 62.6643 49.4883 63.2676 49.0394 63.8816L54.0639 64.901ZM54.6451 44.6714C54.6474 44.1472 54.269 43.7426 53.7765 43.743C53.2927 43.743 52.9028 44.1472 52.9008 44.6492C52.8988 45.1512 53.2915 45.557 53.7741 45.5574C54.0069 45.5544 54.2292 45.4596 54.3923 45.2935C54.5555 45.1273 54.6463 44.9034 54.6451 44.6706V44.6714Z" fill="#F42A41"/>
</g>
<defs>
<filter id="filter0_d_419_212" x="0" y="0" width="120" height="120" filterUnits="userSpaceOnUse" color-interpolation-filters="sRGB">
<feFlood flood-opacity="0" result="BackgroundImageFix"/>
<feColorMatrix in="SourceAlpha" type="matrix" values="0 0 0 0 0 0 0 0 0 0 0 0 0 0 0 0 0 0 127 0" result="hardAlpha"/>
<feOffset dx="5" dy="5"/>
<feGaussianBlur stdDeviation="15"/>
<feComposite in2="hardAlpha" operator="out"/>
<feColorMatrix type="matrix" values="0 0 0 0 0 0 0 0 0 0 0 0 0 0 0 0 0 0 0.1 0"/>
<feBlend mode="normal" in2="BackgroundImageFix" result="effect1_dropShadow_419_212"/>
<feBlend mode="normal" in="SourceGraphic" in2="effect1_dropShadow_419_212" result="shape"/>
</filter>
<clipPath id="clip0_419_212">
<rect width="23.8777" height="25" fill="white" transform="translate(43 42)"/>
</clipPath>
</defs>
</svg>
