<svg width="12" height="12" viewBox="0 0 12 12" fill="none" xmlns="http://www.w3.org/2000/svg">
<path d="M5.29616 4.08913H5.51083C5.98592 4.08913 6.37183 3.70556 6.37471 3.23047V1.83255C6.36621 1.36363 5.98506 0.987165 5.51605 0.984375H5.30138C4.82629 0.984375 4.44038 1.36795 4.4375 1.84304V3.24095C4.44605 3.70988 4.82715 4.08639 5.29616 4.08913ZM5.0815 1.78023C5.08163 1.60097 5.22705 1.45569 5.40631 1.45582C5.58543 1.45596 5.73062 1.60111 5.73071 1.78023V3.28284C5.73058 3.4621 5.58516 3.60738 5.4059 3.60725C5.22678 3.60711 5.08163 3.46196 5.0815 3.28284V1.78023Z" fill="white"/>
<path d="M2.74888 4.03667H3.50806V2.3665L4.37194 0H3.66514L3.14154 1.57069L2.61799 0H1.83789L2.75937 2.3665L2.74888 4.03667Z" fill="white"/>
<path d="M7.46153 4.08913C7.76713 4.05975 8.05347 3.9267 8.27304 3.71217V4.0368H8.90134V0.98442H8.27304V3.35092C8.27304 3.35092 8.05838 3.60221 7.85419 3.60221C7.65001 3.60221 7.63953 3.43991 7.63953 3.43991V0.984375H6.97461V3.67028C7.01092 3.91118 7.21794 4.08926 7.46153 4.08913Z" fill="white"/>
<path d="M7.03069 7.59685C6.90452 7.60301 6.78673 7.66191 6.70605 7.75914V9.92672C6.78889 10.0183 6.90718 10.0698 7.03069 10.0681C7.35532 10.0681 7.35532 9.70683 7.35532 9.70683V7.95815C7.35532 7.9581 7.29772 7.59685 7.03069 7.59685Z" fill="white"/>
<path d="M9.51799 7.59682C9.19336 7.59682 9.19336 7.95808 9.19336 7.95808V8.42403H9.84257V7.95808C9.84262 7.95808 9.84262 7.59682 9.51799 7.59682Z" fill="white"/>
<path d="M9.76029 4.75862C9.7512 4.75875 9.74211 4.75898 9.73302 4.75929H9.72254C9.72254 4.75929 7.7487 4.64933 5.75917 4.64933C3.76963 4.64933 1.78531 4.75403 1.78531 4.75403C0.918324 4.7251 0.192033 5.40451 0.163147 6.27149C0.162562 6.28922 0.162248 6.30699 0.162293 6.32472C0.0623162 6.98334 0.0080539 7.64812 0 8.31426C0.00737899 8.98737 0.0615963 9.65917 0.162293 10.3248C0.161798 11.1922 0.864646 11.8959 1.73213 11.8963C1.74986 11.8963 1.76763 11.896 1.78536 11.8955C1.78536 11.8955 3.73827 12.0002 5.75921 12.0002C7.78016 12.0002 9.73307 11.8955 9.73307 11.8955C10.6001 11.9244 11.3263 11.245 11.3552 10.378C11.3558 10.3603 11.3561 10.3425 11.3561 10.3248C11.4563 9.65912 11.5105 8.98737 11.5184 8.31426C11.5118 7.64111 11.4575 6.96926 11.3561 6.30375C11.3421 5.43645 10.6276 4.74463 9.76029 4.75862ZM3.40837 6.5132H2.61779V10.5865H1.83768V6.5132H1.0471V5.84302H3.42408L3.40837 6.5132ZM5.46599 10.5865H4.81155V10.2777C4.58883 10.4851 4.30321 10.6122 4.00004 10.6389C3.75649 10.644 3.54749 10.4664 3.51312 10.2253V7.02631H4.18852V10.0159C4.18852 10.0159 4.18852 10.173 4.40319 10.173C4.61785 10.173 4.83774 9.9164 4.83774 9.9164V7.02631H5.48695L5.46599 10.5865ZM7.40842 10.6389C7.13301 10.6414 6.87272 10.5132 6.70683 10.2934V10.5865H6.00002V5.84306H6.70161V7.38235C6.88118 7.17893 7.13269 7.05317 7.4032 7.03157C7.83775 7.03157 8.00004 7.39283 8.00004 7.85878L8.00526 9.8117C8.00526 9.8117 8.00526 10.6389 7.40842 10.6389ZM10.5445 8.95304H9.19373V9.72792C9.19373 9.72792 9.19373 10.0892 9.51836 10.0892C9.84299 10.0892 9.84299 9.72792 9.84299 9.72792V9.3614H10.5446V9.92684C10.4507 10.3801 10.0318 10.6909 9.57073 10.6493C9.09317 10.6924 8.6529 10.3886 8.52359 9.92684V7.90589C8.53817 7.40295 8.95765 7.00705 9.46059 7.02163C9.49748 7.02271 9.53424 7.02599 9.57073 7.03153C10.0373 6.96476 10.4697 7.28885 10.5365 7.75539C10.5436 7.8052 10.5463 7.85559 10.5446 7.90589V8.95304H10.5445Z" fill="white"/>
</svg>
