<svg width="16" height="12" viewBox="0 0 16 12" fill="none" xmlns="http://www.w3.org/2000/svg">
<path fill-rule="evenodd" clip-rule="evenodd" d="M15.2894 1.4211C14.7367 1.66749 14.1502 1.82906 13.5494 1.901C14.1824 1.52037 14.6561 0.923589 14.8828 0.220564C14.2874 0.57296 13.6365 0.821863 12.9579 0.956828C12.5417 0.514206 12.0022 0.206027 11.4092 0.0736242C10.8162 -0.0587791 10.1971 -0.00922624 9.63215 0.214311C9.06718 0.437849 8.58236 0.825019 8.24051 1.3273C7.89865 1.82959 7.71551 2.4236 7.71481 3.03118C7.7153 3.26318 7.74215 3.49462 7.79485 3.72055C6.58956 3.65982 5.4105 3.34571 4.33419 2.79983C3.25788 2.25396 2.30838 1.48853 1.54728 0.551961C1.27954 1.01408 1.13821 1.53887 1.1375 2.07295C1.13656 2.5717 1.25906 3.06181 1.4941 3.5017C1.72913 3.9416 2.06938 4.31636 2.4845 4.59281C2.00309 4.57739 1.53218 4.44845 1.11029 4.21608V4.2536C1.10987 4.9537 1.35196 5.63299 1.79539 6.17476C2.23881 6.71653 2.8562 7.08724 3.54257 7.22523C3.28188 7.29722 3.01265 7.33337 2.74221 7.33309C2.5502 7.33242 2.35865 7.31548 2.16996 7.27994C2.3644 7.88179 2.74163 8.40788 3.24916 8.78529C3.75669 9.16271 4.36926 9.37258 5.00161 9.38556C3.92798 10.2293 2.60146 10.6869 1.23594 10.6846C0.995183 10.684 0.754663 10.6696 0.515625 10.6408C1.90211 11.5317 3.51602 12.0035 5.16408 12.0008C6.29897 12.0084 7.42406 11.7906 8.47405 11.3599C9.52404 10.9291 10.478 10.2943 11.2805 9.49186C12.0831 8.68939 12.7182 7.73587 13.149 6.68593C13.5799 5.63598 13.7979 4.50997 13.7903 3.37509C13.7903 3.24223 13.7903 3.11238 13.7815 2.98273C14.3755 2.55579 14.8877 2.02517 15.2934 1.41641L15.2894 1.4211Z" fill="white"/>
</svg>
