<svg width="13" height="12" viewBox="0 0 13 12" fill="none" xmlns="http://www.w3.org/2000/svg">
<path d="M6.25098 0.000976562C4.62109 0.000976562 4.41602 0.0078125 3.77637 0.0371094C3.27872 0.047224 2.78638 0.141662 2.32031 0.316406C1.91973 0.466173 1.55699 0.702219 1.25781 1.00781C0.952494 1.3076 0.715922 1.67012 0.564453 2.07031C0.389641 2.53667 0.295522 3.02939 0.286133 3.52734C0.257813 4.16699 0.25 4.37109 0.25 6.00098C0.25 7.63086 0.256836 7.83398 0.286133 8.47461C0.296247 8.97226 0.390685 9.46459 0.56543 9.93066C0.715935 10.3309 0.951882 10.6935 1.25684 10.9932C1.55637 11.2988 1.91896 11.5354 2.31934 11.6865C2.78582 11.8609 3.27846 11.955 3.77637 11.9648C4.41602 11.9941 4.62012 12.001 6.25 12.001C7.87988 12.001 8.08301 11.9941 8.72363 11.9648C9.22154 11.955 9.71418 11.8609 10.1807 11.6865C10.5797 11.5317 10.9421 11.2955 11.2448 10.9928C11.5474 10.6902 11.7837 10.3278 11.9385 9.92871C12.1123 9.46238 12.2067 8.9702 12.2178 8.47266C12.2461 7.83301 12.2539 7.62891 12.2539 5.99902C12.2539 4.36914 12.2461 4.16504 12.2178 3.52539C12.2067 3.02752 12.1123 2.53503 11.9385 2.06836C11.7877 1.66803 11.5514 1.30543 11.2461 1.00586C10.9471 0.700042 10.5843 0.463961 10.1836 0.314453C9.71583 0.139943 9.22183 0.0461607 8.72266 0.0371094C8.08203 0.0078125 7.87891 0.000976562 6.24902 0.000976562H6.25098ZM5.71191 1.08203H6.25098C7.85254 1.08203 8.04199 1.08789 8.6748 1.11719C9.05529 1.12152 9.43219 1.19122 9.78906 1.32324C10.0496 1.41949 10.2852 1.57301 10.4785 1.77246C10.6776 1.9661 10.831 2.20161 10.9277 2.46191C11.0598 2.81878 11.1295 3.19569 11.1338 3.57617C11.1631 4.20801 11.1689 4.39844 11.1689 6C11.1689 7.60156 11.1631 7.79102 11.1338 8.42383C11.1296 8.804 11.0599 9.18061 10.9277 9.53711C10.8278 9.79567 10.6748 10.0305 10.4787 10.2264C10.2826 10.4223 10.0477 10.5751 9.78906 10.6748C9.43244 10.8078 9.05541 10.8779 8.6748 10.8818C8.04297 10.9111 7.85254 10.917 6.25098 10.917C4.64941 10.917 4.45898 10.9111 3.82617 10.8818C3.44563 10.8772 3.06872 10.8072 2.71191 10.6748C2.45111 10.579 2.21516 10.4258 2.02148 10.2266C1.82238 10.0332 1.66921 9.79756 1.57324 9.53711C1.44088 9.1803 1.37085 8.80339 1.36621 8.42285C1.33789 7.79004 1.33203 7.60059 1.33203 5.99805C1.33203 4.39551 1.33789 4.20703 1.36621 3.57422C1.37027 3.19362 1.44032 2.81661 1.57324 2.45996C1.66921 2.19951 1.82238 1.96391 2.02148 1.77051C2.21532 1.57124 2.4512 1.41777 2.71191 1.32129C3.06884 1.18934 3.44567 1.11932 3.82617 1.11426C4.37988 1.08984 4.59375 1.08203 5.71191 1.08105V1.08203ZM9.45313 2.07812C9.31054 2.07813 9.17116 2.12042 9.05262 2.19965C8.93408 2.27889 8.84171 2.39151 8.78719 2.52325C8.73267 2.655 8.71846 2.79996 8.74634 2.93979C8.77423 3.07962 8.84297 3.20803 8.94386 3.30879C9.04475 3.40954 9.17326 3.4781 9.31312 3.5058C9.45299 3.5335 9.59793 3.51909 9.7296 3.46439C9.86128 3.40969 9.97377 3.31717 10.0528 3.19852C10.1319 3.07987 10.174 2.94043 10.1738 2.79785C10.1738 2.70325 10.1552 2.60958 10.1189 2.5222C10.0827 2.43481 10.0296 2.35543 9.96268 2.28858C9.89574 2.22174 9.81629 2.16874 9.72885 2.13263C9.64142 2.09652 9.54772 2.078 9.45313 2.07812ZM6.25098 2.91992C5.6416 2.91992 5.04591 3.10062 4.53923 3.43917C4.03256 3.77772 3.63765 4.25892 3.40445 4.82191C3.17126 5.3849 3.11024 6.00439 3.22912 6.60206C3.34801 7.19973 3.64145 7.74872 4.07234 8.17961C4.50324 8.61051 5.05223 8.90395 5.64989 9.02283C6.24756 9.14171 6.86706 9.0807 7.43005 8.8475C7.99303 8.6143 8.47423 8.2194 8.81278 7.71272C9.15133 7.20604 9.33203 6.61035 9.33203 6.00098C9.33177 5.18391 9.00708 4.40038 8.42933 3.82263C7.85157 3.24487 7.06804 2.92018 6.25098 2.91992ZM6.25098 4.00098C6.64666 4.0004 7.03363 4.1172 7.36292 4.33661C7.6922 4.55602 7.949 4.86818 8.10082 5.23358C8.25265 5.59898 8.29267 6.0012 8.21583 6.38936C8.139 6.77751 7.94874 7.13415 7.66916 7.41415C7.38957 7.69415 7.03321 7.88492 6.64517 7.96233C6.25712 8.03974 5.85484 8.0003 5.48922 7.84901C5.1236 7.69773 4.81106 7.44138 4.59117 7.11242C4.37128 6.78346 4.25391 6.39666 4.25391 6.00098C4.25494 5.47173 4.46571 4.96447 4.84004 4.59032C5.21436 4.21618 5.72173 4.00566 6.25098 4.00488V4.00098Z" fill="white"/>
</svg>
